<svg width="585" height="483" viewBox="0 0 585 483" fill="none" xmlns="http://www.w3.org/2000/svg">
<g clip-path="url(#clip0_24_2)">
<g opacity="0.1">
<path d="M52.5053 327.405C52.1715 325.639 51.6469 323.921 50.9316 322.299C50.5024 321.297 50.6454 320.152 51.3608 319.293L54.2697 315.715L49.8824 310.371L45.8289 312.518C44.8751 313.043 43.6829 312.947 42.7769 312.327C41.2985 311.325 39.7248 310.466 38.0557 309.798C37.0543 309.416 36.3389 308.462 36.2436 307.365L35.8144 302.784L28.9472 302.116L27.612 306.554C27.2781 307.603 26.4197 308.367 25.3229 308.558C23.5584 308.892 21.8417 309.416 20.2203 310.132C19.2188 310.562 18.0743 310.418 17.2159 309.703L13.6393 306.792L8.29819 311.182L10.4442 315.238C10.9687 316.192 10.8734 317.385 10.2534 318.291C9.25196 319.77 8.39356 321.345 7.72592 323.015C7.34441 324.017 6.39065 324.733 5.29381 324.828L0.715744 325.257L0.0480957 332.128L4.48312 333.464C5.53226 333.798 6.29527 334.657 6.48602 335.755C6.81984 337.52 7.34442 339.238 8.05975 340.86C8.48894 341.862 8.34588 343.055 7.63055 343.866L4.72156 347.444L9.10888 352.788L13.1624 350.641C14.1162 350.116 15.3084 350.212 16.2145 350.832C17.6928 351.834 19.2665 352.693 20.9356 353.361C21.9371 353.743 22.6524 354.697 22.7477 355.794L23.1769 360.375L30.0441 361.043L31.3793 356.605C31.7132 355.556 32.5715 354.792 33.6684 354.602C35.4328 354.268 37.1496 353.743 38.771 353.027C39.7725 352.598 40.917 352.741 41.7754 353.456L45.352 356.367L50.6931 351.977L48.5471 347.922C48.0226 346.967 48.1179 345.774 48.7379 344.868C49.7394 343.389 50.5977 341.814 51.2654 340.144C51.6469 339.142 52.6006 338.426 53.6975 338.331L58.2756 337.902L58.9432 331.031L54.5082 329.695C53.5067 329.361 52.696 328.454 52.5053 327.405ZM27.8027 349.067C18.1697 348.112 11.1118 339.524 12.0656 329.886C13.0193 320.247 21.6032 313.186 31.2363 314.14C40.8693 315.094 47.9272 323.683 46.9734 333.321C46.0197 342.959 37.4358 349.973 27.8027 349.067Z" fill="#2A94F4"/>
<path d="M17.8836 330.411C18.5035 323.969 24.2261 319.293 30.664 319.913C37.102 320.534 41.7754 326.259 41.1555 332.701C40.5355 339.142 34.8129 343.818 28.375 343.198C21.9371 342.578 17.2636 336.852 17.8836 330.411Z" fill="#2A94F4"/>
</g>
<path opacity="0.1" d="M266.006 483C385.183 483 481.796 475.181 481.796 465.536C481.796 455.892 385.183 448.073 266.006 448.073C146.829 448.073 50.2163 455.892 50.2163 465.536C50.2163 475.181 146.829 483 266.006 483Z" fill="#2A94F4"/>
<path opacity="0.19" d="M200.577 409.854C200.577 413.91 203.868 417.202 207.921 417.202H471.781C475.834 417.202 479.125 413.91 479.125 409.854V182.545H200.625V409.854H200.577Z" fill="#3674B5"/>
<path d="M283.46 316.001C284.7 320.295 286.416 324.446 288.61 328.407C289.945 330.792 289.85 333.751 288.324 336.041L281.934 345.631L294.19 357.894L303.775 351.5C306.064 349.973 309.021 349.878 311.405 351.214C315.316 353.409 319.464 355.126 323.804 356.367C326.427 357.13 328.43 359.278 329.002 361.997L331.243 373.305H348.554L350.843 361.949C351.368 359.277 353.371 357.083 356.041 356.319C360.333 355.079 364.482 353.361 368.44 351.166C370.825 349.83 373.781 349.926 376.071 351.452L385.656 357.846L397.912 345.584L391.521 335.993C389.995 333.703 389.9 330.745 391.235 328.359C393.429 324.446 395.146 320.295 396.386 315.953C397.149 313.329 399.295 311.325 402.013 310.752L413.315 308.51V291.19L401.965 288.899C399.295 288.375 397.101 286.371 396.338 283.699C395.098 279.404 393.381 275.253 391.188 271.293C389.852 268.907 389.948 265.949 391.474 263.659L397.864 254.068L385.608 241.806L376.023 248.199C373.734 249.726 370.777 249.822 368.393 248.486C364.482 246.291 360.333 244.573 355.994 243.333C353.371 242.569 351.368 240.422 350.796 237.702L348.554 226.394H331.243L328.954 237.75C328.43 240.422 326.427 242.617 323.756 243.38C319.464 244.621 315.316 246.339 311.357 248.533C308.973 249.869 306.016 249.774 303.727 248.247L294.142 241.854L281.886 254.116L288.276 263.706C289.802 265.997 289.898 268.955 288.562 271.341C286.369 275.253 284.652 279.404 283.412 283.746C282.649 286.371 280.503 288.375 277.785 288.947L266.483 291.19V308.51L277.833 310.8C280.551 311.325 282.744 313.329 283.46 316.001ZM339.827 255.834C364.101 255.834 383.796 275.54 383.796 299.826C383.796 324.112 364.101 343.818 339.827 343.818C315.554 343.818 295.859 324.112 295.859 299.826C295.859 275.587 315.554 255.881 339.827 255.834ZM200.577 145.853V167.849H479.077V145.853C479.077 141.797 475.787 138.505 471.733 138.505H207.874C203.82 138.505 200.577 141.797 200.577 145.853ZM273.874 145.853H288.515V160.549H273.874V145.853ZM244.546 145.853H259.186V160.549H244.546V145.853ZM215.218 145.853H229.858V160.549H215.218V145.853Z" fill="#3674B5"/>
<path d="M369.156 299.874C369.156 316.049 356.041 329.218 339.827 329.218C323.613 329.218 310.499 316.096 310.499 299.874C310.499 283.699 323.613 270.53 339.827 270.53C355.994 270.53 369.156 283.651 369.156 299.874ZM347.171 13.8763C347.171 9.82064 343.881 6.52838 339.827 6.52838H75.9678C71.9143 6.52838 68.6238 9.82064 68.6238 13.8763V35.8724H347.124V13.8763H347.171ZM97.9521 28.5245H83.3118V13.8763H97.9521V28.5245ZM127.28 28.5245H112.64V13.8763H127.28V28.5245ZM156.609 28.5245H141.968V13.8763H156.609V28.5245Z" fill="#3674B5"/>
<path opacity="0.19" d="M185.889 145.853C185.889 133.686 195.713 123.857 207.874 123.857H347.124V50.5206H68.6238V277.83C68.6238 281.885 71.9143 285.178 75.9678 285.178H185.889V145.853ZM244.546 87.2126H259.186V101.861H244.546V87.2126ZM215.218 87.2126H229.858V101.861H215.218V87.2126ZM185.889 87.2126H200.53V101.861H185.889V87.2126ZM156.609 263.182H97.9521V248.533H156.609V263.182ZM156.609 233.837H97.9521V219.189H156.609V233.837ZM156.609 204.541H97.9521V189.893H156.609V204.541ZM156.609 175.197H97.9521V160.549H156.609V175.197ZM156.609 145.853H97.9521V131.205H156.609V145.853ZM156.609 101.861V87.2126H171.249V101.861H156.609Z" fill="#3674B5"/>
<path d="M243.259 351.93L243.545 344.2L249.029 345.87L250.078 355.508C250.078 355.508 244.833 355.842 243.259 351.93Z" fill="#FCD2B1"/>
<path d="M243.736 351.977C245.023 352.502 247.169 352.979 249.84 352.359L249.506 350.164C249.506 350.164 251.032 351.071 251.413 353.075C251.795 355.031 251.89 354.506 254.37 356.033C256.898 357.56 256.707 360.995 256.707 360.995L238.013 360.518C238.013 360.518 237.488 356.749 240.874 352.741C241.542 351.882 242.734 351.548 243.736 351.977Z" fill="#0E538C"/>
<path d="M213.549 238.323C213.549 238.323 211.117 247.818 214.55 253.782C217.984 259.746 224.183 246.529 224.183 246.529C224.183 246.529 223.087 233.838 213.549 238.323Z" fill="#3674B5"/>
<path d="M211.832 193.281C211.832 193.281 199.242 210.41 197.144 220.764C194.998 231.118 197.287 253.734 197.287 253.734H202.438C202.438 253.734 205.156 224.867 206.873 220.764C208.589 216.565 219.748 197.193 219.748 197.193L211.832 193.281Z" fill="#FFE3CA"/>
<path d="M209.686 360.136H257.47V365.623H209.686V360.136ZM199.481 398.021H250.841V403.508H199.481V398.021ZM194.855 434.665H246.215V440.153H194.855V434.665Z" fill="#D3D3D3"/>
<path d="M189.705 471.119H183.982L226.138 272.724H229.334L189.705 471.119ZM249.458 471.119H243.735L277.165 267.142L279.979 268.478L249.458 471.119Z" fill="#D3D3D3"/>
<path d="M237.87 471.119L268.629 273.058L226.139 272.724L183.982 471.119H177.401L220.225 267.142H277.165L245.548 471.119H236.916" fill="#F7F7F7"/>
<path d="M218.556 351.93L218.842 344.2L224.326 345.87L225.376 355.508C225.328 355.508 220.13 355.842 218.556 351.93Z" fill="#FCD2B1"/>
<path d="M272.683 177.535C272.683 177.535 286.274 176.533 287.895 170.235C289.517 163.937 289.23 146.95 289.23 146.95H293.952C293.952 146.95 297.194 162.744 297.004 170.235C296.813 177.726 287.704 190.513 272.683 189.702C257.708 188.891 272.683 177.535 272.683 177.535Z" fill="#FFE3CA"/>
<path d="M228.666 176.724C228.666 176.724 220.797 177.535 217.555 180.97C215.981 182.64 206.205 194.76 206.586 197.384L218.079 204.541L227.474 191.515L228.666 176.724Z" fill="#2A94F4"/>
<path d="M216.362 235.078C216.362 235.078 212.976 245.098 216.172 256.072C219.367 267.046 219.367 289.186 219.081 294.959C218.794 300.732 213.406 317.432 217.984 346.92H225.042C225.042 346.92 229.334 316.001 231.813 302.832C234.15 290.474 237.107 259.651 237.107 259.651C237.107 259.651 245.977 288.899 244.498 296.438C242.877 304.74 242.686 346.872 242.686 346.872H249.792C249.792 346.872 257.756 310.609 258.233 300.876C258.757 291.142 257.66 236.557 257.66 236.557C257.66 236.557 234.007 220.478 216.362 235.078Z" fill="#0B4870"/>
<path d="M240.588 157.686L233.387 179.73L246.406 182.306L249.267 159.452L240.588 157.686Z" fill="#FCD2B1"/>
<path d="M247.98 175.483C247.98 175.483 256.802 177.296 257.708 188.843C258.614 200.39 259.854 249.631 259.854 253.877C259.568 255.834 225.28 262.37 215.075 252.446C212.5 249.917 220.941 207.07 219.748 195.809C218.509 184.597 225.185 170.33 247.98 175.483Z" fill="#DBE8EC"/>
<path d="M258.233 198.577C258.233 198.577 261.762 190.513 272.682 189.702C272.682 189.702 275.305 182.211 272.682 177.535C272.682 177.535 252.892 173.479 245.357 175.006C237.822 176.533 258.233 198.577 258.233 198.577Z" fill="#2A94F4"/>
<path d="M293.904 151.197C293.904 151.197 295.382 143.276 292.759 138.791C291.186 136.119 289.469 134.879 287.752 135.356C286.608 135.69 286.131 137.694 286.417 138.839C286.798 140.318 288.038 144.374 288.706 145.519C288.706 145.519 287.514 145.519 286.274 142.847C285.081 140.223 284.175 144.088 285.129 145.901C286.56 148.525 291.281 155.73 293.904 151.197Z" fill="#FFE3CA"/>
<path d="M218.985 351.977C220.273 352.502 222.419 352.979 225.089 352.359L224.755 350.164C224.755 350.164 226.281 351.071 226.663 353.075C227.044 355.031 227.14 354.506 229.62 356.033C232.147 357.56 231.956 360.995 231.956 360.995L213.263 360.518C213.263 360.518 212.738 356.749 216.124 352.741C216.839 351.882 217.984 351.548 218.985 351.977Z" fill="#0E538C"/>
<path d="M259.044 154.394C258.71 151.626 264.718 149.766 253.226 141.654C247.36 137.551 237.155 139.364 234.007 145.567C230.86 151.77 232.529 152.39 230.097 152.819C227.665 153.296 230.24 172.477 244.928 172.239C259.663 172 259.044 154.394 259.044 154.394Z" fill="#0B4870"/>
<path d="M214.36 231.643H259.091C260.903 231.643 262.382 232.979 262.573 234.744C263.336 241.472 264.146 256.74 256.278 257.838C246.168 259.269 242.925 248.343 242.925 238.18L213.549 238.323C213.549 238.323 212.548 233.456 214.36 231.643Z" fill="#3674B5"/>
<path d="M202.104 251.062C202.104 251.062 201.245 261.225 204.536 263.993C207.826 266.808 198.718 268.048 196.476 262.895C194.235 257.742 197.287 251.062 197.287 251.062H202.104Z" fill="#FFE3CA"/>
<path d="M201.245 252.398C201.245 252.398 204.297 252.923 205.442 256.215C206.109 258.076 206.491 260.08 206.682 261.464C206.825 262.37 205.775 262.991 205.012 262.418C204.249 261.846 203.534 260.987 203.629 259.508C203.868 256.406 200.148 257.313 200.148 257.313C200.148 257.313 198.908 253.639 201.245 252.398Z" fill="#FFE3CA"/>
<path d="M251.175 238.657H248.838V231.738C248.838 231.356 249.172 231.022 249.554 231.022H250.507C250.889 231.022 251.223 231.356 251.223 231.738V238.657H251.175ZM254.656 238.657H252.32V234.076C252.32 233.694 252.653 233.36 253.035 233.36H253.989C254.37 233.36 254.704 233.694 254.704 234.076V238.657H254.656ZM259.091 238.657H255.849V228.684C255.849 228.16 256.278 227.73 256.802 227.73H258.138C258.662 227.73 259.091 228.16 259.091 228.684V238.657Z" fill="#F7F7F7"/>
<path opacity="0.32" d="M243.688 238.657H261.714V240.183H243.688V238.657Z" fill="#161616"/>
<path d="M95.9494 376.932C95.091 374.737 94.0418 372.59 92.7066 370.633C91.8959 369.441 91.8482 367.866 92.5158 366.625L95.4725 361.281L88.51 355.365L83.7412 359.182C82.5966 360.089 81.0706 360.279 79.7353 359.659C77.5894 358.705 75.3003 357.941 73.0113 357.512C71.5806 357.226 70.4361 356.176 70.0546 354.792L68.3855 348.971L59.277 349.735L58.5617 355.794C58.4186 357.226 57.4172 358.466 56.0819 358.991C53.8883 359.85 51.7423 360.9 49.7871 362.236C48.5949 363.047 47.0211 363.095 45.7812 362.427L40.4401 359.468L34.5268 366.435L38.3419 371.206C39.2479 372.351 39.4387 373.878 38.8187 375.214C37.865 377.361 37.102 379.651 36.6728 381.942C36.3866 383.373 35.3375 384.518 33.9545 384.9L28.0889 386.57L28.8519 395.683L34.9083 396.399C36.3389 396.542 37.5788 397.544 38.1034 398.88C38.9618 401.075 40.0109 403.222 41.3462 405.178C42.1569 406.371 42.2046 407.946 41.537 409.186L38.5803 414.53L45.5428 420.447L50.3116 416.63C51.4562 415.723 52.9822 415.532 54.3175 416.152C56.4634 417.107 58.7525 417.87 61.0415 418.3C62.4722 418.586 63.6167 419.636 63.9982 421.019L65.6673 426.888L74.7758 426.125L75.4911 420.065C75.6341 418.634 76.6356 417.393 77.9709 416.868C80.1645 416.009 82.3105 414.96 84.2657 413.624C85.458 412.812 87.0316 412.765 88.2715 413.433L93.6126 416.391L99.526 409.425L95.7109 404.653C94.8049 403.508 94.6141 401.981 95.2341 400.645C96.1878 398.498 96.9508 396.208 97.38 393.918C97.6662 392.486 98.7153 391.341 100.098 390.96L105.964 389.29L105.201 380.176L99.1445 379.46C97.7138 379.27 96.474 378.268 95.9494 376.932ZM68.9578 411.047C56.1773 412.097 44.9705 402.602 43.8737 389.814C42.8246 377.027 52.3145 365.814 65.095 364.717C77.8755 363.667 89.0822 373.162 90.1791 385.95C91.2282 398.737 81.7382 409.95 68.9578 411.047Z" fill="#3674B5"/>
<path d="M51.5992 389.194C50.8839 380.653 57.2264 373.162 65.715 372.447C74.2512 371.731 81.7382 378.077 82.4536 386.57C83.1689 395.111 76.8264 402.602 68.3378 403.317C59.8016 404.033 52.3145 397.735 51.5992 389.194Z" fill="#3674B5"/>
<path d="M170.2 314.14C167.911 312.088 165.431 310.275 162.713 308.796C161.044 307.89 160.09 306.124 160.138 304.263L160.376 296.343L148.836 293.671L145.593 300.876C144.83 302.593 143.161 303.738 141.253 303.834C138.201 303.977 135.149 304.502 132.192 305.361C130.38 305.886 128.425 305.361 127.138 303.977L121.749 298.204L111.687 304.454L114.452 311.898C115.12 313.663 114.739 315.667 113.451 317.051C111.4 319.341 109.588 321.822 108.11 324.542C107.204 326.212 105.439 327.166 103.579 327.118L95.6632 326.88L92.9927 338.426L100.194 341.671C101.91 342.434 103.055 344.104 103.15 346.013C103.293 349.067 103.818 352.12 104.629 355.079C105.153 356.892 104.629 358.848 103.246 360.136L97.4754 365.528L103.723 375.596L111.162 372.781C112.926 372.113 114.882 372.494 116.312 373.783C118.601 375.834 121.081 377.647 123.799 379.126C125.468 380.033 126.47 381.798 126.375 383.659L126.136 391.58L137.677 394.252L140.919 387.047C141.682 385.329 143.352 384.184 145.259 384.089C148.311 383.946 151.363 383.421 154.32 382.61C156.132 382.085 158.087 382.61 159.375 383.993L164.764 389.767L174.826 383.516L172.06 376.073C171.392 374.307 171.774 372.303 173.061 370.92C175.112 368.629 176.924 366.148 178.402 363.429C179.309 361.759 181.073 360.804 182.933 360.852L190.849 361.091L193.52 349.544L186.319 346.299C184.602 345.536 183.457 343.866 183.362 341.957C183.219 338.904 182.694 335.85 181.884 332.892C181.359 331.079 181.884 329.122 183.267 327.834L189.037 322.442L182.79 312.375L175.35 315.142C173.586 315.762 171.631 315.381 170.2 314.14ZM159.232 369.536C145.116 378.363 126.518 374.021 117.695 359.898C108.873 345.774 113.213 327.166 127.328 318.339C141.444 309.512 160.042 313.854 168.865 327.977C177.639 342.148 173.348 360.709 159.232 369.536Z" fill="#CCE9FF"/>
<path d="M126.232 354.554C120.366 345.154 123.227 332.749 132.67 326.88C142.112 321.011 154.463 323.874 160.329 333.321C166.194 342.721 163.333 355.126 153.891 360.995C144.496 366.864 132.097 364.001 126.232 354.554Z" fill="#CCE9FF"/>
<path d="M503.875 92.0318C502.016 94.4175 500.489 96.994 499.25 99.7614C498.487 101.431 496.865 102.577 495.005 102.672L487.232 103.054L485.515 114.553L492.812 117.177C494.528 117.797 495.768 119.372 496.007 121.185C496.388 124.191 497.104 127.101 498.2 129.917C498.868 131.634 498.487 133.591 497.247 134.974L492.049 140.7L498.963 150.052L506.021 146.76C507.69 145.996 509.646 146.187 511.124 147.332C513.508 149.193 516.084 150.72 518.849 151.96C520.519 152.724 521.663 154.346 521.759 156.207L522.14 163.984L533.633 165.702L536.256 158.402C536.876 156.684 538.449 155.444 540.262 155.205C543.266 154.823 546.175 154.108 548.989 153.01C550.705 152.342 552.661 152.724 554.044 153.964L559.766 159.213L569.113 152.294L565.823 145.233C565.059 143.563 565.25 141.607 566.395 140.127C568.255 137.742 569.781 135.165 571.021 132.398C571.784 130.728 573.405 129.583 575.265 129.487L583.038 129.105L584.755 117.606L577.458 114.982C575.742 114.362 574.502 112.787 574.263 110.974C573.882 107.968 573.167 105.058 572.07 102.243C571.402 100.525 571.784 98.5686 573.023 97.1849L578.269 91.4592L571.354 82.1073L564.296 85.3995C562.627 86.1629 560.672 85.9721 559.194 84.827C556.809 82.9661 554.234 81.4393 551.468 80.1987C549.799 79.4353 548.655 77.813 548.559 75.9522L548.178 68.1748L536.685 66.4571L534.062 73.7573C533.442 75.475 531.868 76.7156 530.056 76.9542C527.052 77.3359 524.143 78.0516 521.329 79.149C519.613 79.817 517.657 79.4353 516.274 78.1947L510.552 72.9462L501.205 79.8647L504.495 86.9264C505.211 88.5964 505.02 90.5526 503.875 92.0318ZM558.86 98.4731C568.541 111.594 565.775 130.155 552.661 139.841C539.546 149.527 520.995 146.76 511.315 133.638C501.634 120.517 504.4 101.956 517.514 92.2703C530.676 82.5844 549.179 85.3518 558.86 98.4731Z" fill="#3674B5"/>
<path d="M546.795 131.921C538.02 138.41 525.717 136.549 519.231 127.769C512.745 118.99 514.605 106.68 523.38 100.191C532.154 93.7017 544.458 95.5626 550.944 104.342C557.429 113.074 555.569 125.431 546.795 131.921Z" fill="#3674B5"/>
<path d="M386.181 53.4789C385.465 57.3437 385.227 61.2563 385.37 65.1688C385.465 67.5545 384.273 69.8448 382.175 71.0376L373.448 76.0476L378.264 90.3618L388.279 89.0735C390.663 88.7872 393 89.8369 394.335 91.7932C396.577 95.0377 399.152 97.996 402.013 100.62C403.777 102.243 404.493 104.724 403.873 107.014L401.25 116.7L414.746 123.428L420.945 115.459C422.424 113.551 424.808 112.644 427.145 113.074C431.008 113.789 434.918 114.076 438.828 113.885C441.213 113.789 443.502 114.982 444.694 117.082L449.701 125.813L464.008 120.994L462.72 110.974C462.434 108.589 463.483 106.251 465.439 104.915C468.681 102.72 471.638 100.095 474.261 97.2326C475.882 95.4672 478.362 94.7515 480.651 95.3717L490.38 97.996L497.104 84.4452L489.092 78.2424C487.184 76.7633 486.278 74.3776 486.708 72.0396C487.423 68.1748 487.709 64.2623 487.518 60.3497C487.423 57.964 488.663 55.6737 490.713 54.4809L499.44 49.4709L494.624 35.1568L484.609 36.445C482.225 36.7313 479.888 35.6816 478.553 33.7253C476.359 30.4808 473.736 27.5225 470.875 24.8983C469.111 23.276 468.395 20.7949 469.015 18.5046L471.638 8.77095L458.19 2.04329L451.99 10.0115C450.512 11.9201 448.128 12.8266 445.791 12.3972C441.928 11.6815 438.018 11.3952 434.107 11.5861C431.723 11.6815 429.434 10.4887 428.242 8.38924L423.234 -0.342407L408.928 4.4767L410.215 14.4966C410.502 16.8823 409.452 19.2203 407.497 20.5563C404.254 22.7511 401.298 25.3754 398.675 28.2382C397.053 30.0037 394.574 30.7194 392.285 30.0991L382.556 27.4748L375.832 41.0256L383.796 47.2284C385.751 48.7075 386.657 51.0932 386.181 53.4789ZM453.564 28.3337C472.544 37.781 480.27 60.8269 470.875 79.817C461.433 98.8071 438.399 106.537 419.419 97.1372C400.439 87.6898 392.714 64.644 402.108 45.6538C411.551 26.6637 434.584 18.934 453.564 28.3337Z" fill="#CCE9FF"/>
<path d="M459.382 74.139C453.087 86.7832 437.732 91.984 425.094 85.6858C412.457 79.3875 407.259 64.0237 413.554 51.3795C419.849 38.7353 435.204 33.5345 447.842 39.8327C460.527 46.0832 465.677 61.4471 459.382 74.139Z" fill="#CCE9FF"/>
</g>
<defs>
<clipPath id="clip0_24_2">
<rect width="585" height="483" fill="white"/>
</clipPath>
</defs>
</svg>
