<svg width="187" height="65" viewBox="0 0 187 65" fill="none" xmlns="http://www.w3.org/2000/svg">
<rect width="187" height="65" rx="11" fill="#0C629E"/>
<path d="M63.54 41V26.1H65.74L71.34 33.86H70.24L75.74 26.1H77.94V41H75.6V28.88L76.48 29.12L70.86 36.8H70.62L65.12 29.12L65.9 28.88V41H63.54ZM83.6605 41V28.2H79.7005V26.1H89.9005V28.2H86.0005V41H83.6605ZM89.3489 41L94.5889 26.1H97.5089L102.749 41H100.229L99.0889 37.66H93.0289L91.8689 41H89.3489ZM93.7089 35.56H98.3689L95.7289 27.76H96.3889L93.7089 35.56ZM104.517 41V26.1H109.397C110.943 26.1 112.283 26.4133 113.417 27.04C114.563 27.6533 115.45 28.52 116.077 29.64C116.703 30.76 117.017 32.06 117.017 33.54C117.017 35.0067 116.703 36.3067 116.077 37.44C115.45 38.56 114.563 39.4333 113.417 40.06C112.283 40.6867 110.943 41 109.397 41H104.517ZM106.877 38.9H109.437C110.49 38.9 111.403 38.68 112.177 38.24C112.963 37.8 113.57 37.18 113.997 36.38C114.423 35.58 114.637 34.6333 114.637 33.54C114.637 32.4467 114.417 31.5067 113.977 30.72C113.55 29.92 112.95 29.3 112.177 28.86C111.403 28.42 110.49 28.2 109.437 28.2H106.877V38.9ZM119.121 41V30.18H121.381V41H119.121ZM119.121 28.7V26.1H121.381V28.7H119.121ZM129.243 45.4C128.456 45.4 127.73 45.2733 127.063 45.02C126.396 44.7667 125.823 44.4133 125.343 43.96C124.863 43.52 124.503 43 124.263 42.4L126.343 41.54C126.53 42.0467 126.87 42.4667 127.363 42.8C127.87 43.1333 128.49 43.3 129.223 43.3C129.796 43.3 130.31 43.1867 130.763 42.96C131.216 42.7467 131.576 42.4267 131.843 42C132.11 41.5867 132.243 41.0867 132.243 40.5V38.06L132.643 38.52C132.27 39.2133 131.75 39.74 131.083 40.1C130.43 40.46 129.69 40.64 128.863 40.64C127.863 40.64 126.963 40.4067 126.163 39.94C125.363 39.4733 124.73 38.8333 124.263 38.02C123.81 37.2067 123.583 36.2933 123.583 35.28C123.583 34.2533 123.81 33.34 124.263 32.54C124.73 31.74 125.356 31.1067 126.143 30.64C126.93 30.1733 127.83 29.94 128.843 29.94C129.67 29.94 130.403 30.12 131.043 30.48C131.696 30.8267 132.23 31.3333 132.643 32L132.343 32.56V30.18H134.483V40.5C134.483 41.4333 134.256 42.2667 133.803 43C133.363 43.7467 132.75 44.3333 131.963 44.76C131.176 45.1867 130.27 45.4 129.243 45.4ZM129.123 38.54C129.723 38.54 130.256 38.4 130.723 38.12C131.19 37.8267 131.556 37.44 131.823 36.96C132.103 36.4667 132.243 35.9133 132.243 35.3C132.243 34.6867 132.103 34.1333 131.823 33.64C131.543 33.1467 131.17 32.76 130.703 32.48C130.236 32.1867 129.71 32.04 129.123 32.04C128.51 32.04 127.963 32.1867 127.483 32.48C127.003 32.76 126.623 33.1467 126.343 33.64C126.076 34.12 125.943 34.6733 125.943 35.3C125.943 35.9 126.076 36.4467 126.343 36.94C126.623 37.4333 127.003 37.8267 127.483 38.12C127.963 38.4 128.51 38.54 129.123 38.54ZM137.129 41V30.18H139.389V41H137.129ZM137.129 28.7V26.1H139.389V28.7H137.129ZM146.711 41.12C145.578 41.12 144.698 40.8 144.071 40.16C143.444 39.52 143.131 38.62 143.131 37.46V32.22H141.231V30.18H141.531C142.038 30.18 142.431 30.0333 142.711 29.74C142.991 29.4467 143.131 29.0467 143.131 28.54V27.7H145.391V30.18H147.851V32.22H145.391V37.36C145.391 37.7333 145.451 38.0533 145.571 38.32C145.691 38.5733 145.884 38.7733 146.151 38.92C146.418 39.0533 146.764 39.12 147.191 39.12C147.298 39.12 147.418 39.1133 147.551 39.1C147.684 39.0867 147.811 39.0733 147.931 39.06V41C147.744 41.0267 147.538 41.0533 147.311 41.08C147.084 41.1067 146.884 41.12 146.711 41.12ZM153.279 41.24C152.545 41.24 151.899 41.1133 151.339 40.86C150.792 40.5933 150.365 40.2333 150.059 39.78C149.752 39.3133 149.599 38.7667 149.599 38.14C149.599 37.5533 149.725 37.0267 149.979 36.56C150.245 36.0933 150.652 35.7 151.199 35.38C151.745 35.06 152.432 34.8333 153.259 34.7L157.019 34.08V35.86L153.699 36.44C153.099 36.5467 152.659 36.74 152.379 37.02C152.099 37.2867 151.959 37.6333 151.959 38.06C151.959 38.4733 152.112 38.8133 152.419 39.08C152.739 39.3333 153.145 39.46 153.639 39.46C154.252 39.46 154.785 39.3267 155.239 39.06C155.705 38.7933 156.065 38.44 156.319 38C156.572 37.5467 156.699 37.0467 156.699 36.5V33.72C156.699 33.1867 156.499 32.7533 156.099 32.42C155.712 32.0733 155.192 31.9 154.539 31.9C153.939 31.9 153.412 32.06 152.959 32.38C152.519 32.6867 152.192 33.0867 151.979 33.58L150.099 32.64C150.299 32.1067 150.625 31.64 151.079 31.24C151.532 30.8267 152.059 30.5067 152.659 30.28C153.272 30.0533 153.919 29.94 154.599 29.94C155.452 29.94 156.205 30.1 156.859 30.42C157.525 30.74 158.039 31.1867 158.399 31.76C158.772 32.32 158.959 32.9733 158.959 33.72V41H156.799V39.04L157.259 39.1C157.005 39.54 156.679 39.92 156.279 40.24C155.892 40.56 155.445 40.8067 154.939 40.98C154.445 41.1533 153.892 41.24 153.279 41.24ZM161.601 41V25.86H163.861V41H161.601ZM167.504 41V38.4H169.804V41H167.504Z" fill="white"/>
<g clip-path="url(#clip0_7_76)">
<path d="M37.8906 24.8298L38.345 26.0976H39.8153L38.4977 26.8684L39.0801 28.1489L37.8906 27.3654L36.7011 28.1489L37.2835 26.8684L35.9659 26.0976H37.4363L37.8906 24.8298Z" fill="white"/>
<path d="M33.2204 39.3154L26.3051 35.5561L25.5314 36.1206C27.6051 36.6852 37.6949 43.0748 37.8983 44.0641C39.0373 42.3229 46.6441 38.0623 50.3051 36.1497L49.4915 35.5561L42.5763 39.5133C41.0848 40.5026 38.061 42.402 37.8983 42.8769C37.7356 42.2438 34.7119 40.2388 33.2204 39.3154Z" fill="white"/>
<path d="M26.9152 40.7005L35.661 49.2084L35.0508 50.9892C34.7254 50.356 27.322 43.9981 23.661 40.8983C22.2373 39.7111 21.2203 39.3154 20 38.7218C23.0508 36.5454 27.2542 37.9304 28.9492 38.9197L33.8305 42.0854C34.9152 43.0748 37.2475 45.2117 37.8983 45.8448C38.5491 44.9687 40.8814 42.9735 41.9661 42.0854C42.6441 41.6238 44.7729 40.2651 47.8644 38.524C52.9491 36.1497 55.3898 38.3261 56 38.9197C55.0237 38.7614 50.5085 42.1514 48.4746 43.8662L40.7458 50.9892L40.1356 49.2084L48.8814 40.7004C46.0339 39.7111 40.339 45.1853 37.8983 47.8234C37.1525 46.966 35.0102 44.7368 32.4068 42.6791C29.8034 40.6213 27.661 40.5026 26.9152 40.7005Z" fill="white"/>
<path d="M32 33.9732L30.7797 36.3475L37.6949 40.7004V40.3047C35.7288 39.0516 31.7153 36.4662 31.3898 36.1497C30.9831 35.9518 32.2034 34.1711 32.4068 33.7753C32.2441 33.7753 32.0678 33.9072 32 33.9732Z" fill="white"/>
<path d="M38.1017 40.3047V40.7004L45.0169 36.3475C44.7458 35.7539 44.1627 34.4876 44 34.1711C43.8373 33.8545 43.5254 33.7753 43.3898 33.7753L44.2034 35.3582C44.5288 35.9914 44.6102 36.1497 44.2034 36.3475L38.1017 40.3047Z" fill="white"/>
<path d="M33.0169 33.9732L32.2034 35.9518L37.2881 39.1176L37.6949 38.7218C37.2881 37.3368 34.0339 36.1497 33.4237 35.9518C32.9356 35.4769 33.3559 34.3029 33.6271 33.7753L33.0169 33.9732Z" fill="white"/>
<path d="M38.5084 39.1176L38.3051 38.524C40.1355 36.3475 41.5593 36.3475 42.3728 35.9518C43.0237 35.7935 42.5084 34.303 42.1694 33.5775L42.7796 33.7753L43.5932 35.9518L38.5084 39.1176Z" fill="white"/>
<path d="M37.8983 36.1497C37.2474 34.5668 34.983 33.8413 34.0339 33.7753C33.6949 34.4348 33.1796 35.7935 33.8305 35.9518C36.2712 36.1497 36.8813 37.1389 37.8983 38.3261C39.2 36.4266 41.0169 35.9518 41.7627 35.9518C42.1017 35.7539 42.5356 35.0416 41.5593 33.7753C39.444 34.0919 38.2373 35.4901 37.8983 36.1497Z" fill="white"/>
<path d="M36.6286 13.6195C33.8715 15.1473 32.7199 15.8079 31.647 16.4784C29.3164 17.9354 27.984 19.1033 27.0584 20.4993C26.0366 22.0369 25.5237 23.8556 25.3488 26.5552C25.2368 28.2874 25.28 30.7216 25.4765 33.7496C25.4981 34.0779 25.5158 34.3552 25.5158 34.3669C25.5158 34.3768 25.5885 34.2863 25.677 34.1625C26.2174 33.4074 26.9681 32.6229 27.7678 31.98C28.2238 31.6123 28.827 31.1915 29.2633 30.9379L29.4441 30.8337L29.4362 30.7531C29.4166 30.58 29.3871 29.8879 29.3675 29.1644C29.3105 27.0173 29.4913 25.1828 29.8803 23.9873C30.0769 23.3778 30.291 22.9767 30.576 22.6818C31.024 22.2177 31.0869 22.1627 31.6077 21.8049C32.6197 21.1049 34.6674 19.8721 37.1061 18.4918L37.898 18.0415L38.5112 18.3876C40.7593 19.6577 42.7126 20.8237 43.8406 21.5709C44.5519 22.0408 44.8683 22.2905 45.1022 22.5658C45.1139 22.5815 45.1749 22.6425 45.2358 22.7014C45.4677 22.9256 45.7153 23.3817 45.8921 23.9106C46.1653 24.7325 46.3146 25.6449 46.409 27.0566C46.4404 27.5324 46.4404 29.3826 46.409 29.9567C46.3952 30.1888 46.3795 30.4817 46.3736 30.6076L46.3598 30.8356L46.6035 30.9811C47.9909 31.8089 49.3331 33.028 50.1505 34.2037L50.2645 34.3689L50.2802 34.302C50.292 34.2411 50.3255 33.72 50.3942 32.5128C50.5082 30.5034 50.5416 28.1891 50.4728 26.9189C50.2763 23.2441 49.5158 21.1186 47.7511 19.3019C46.6114 18.13 45.1434 17.1056 42.2881 15.4914C41.5925 15.0962 37.841 13.0159 37.7978 13.0002C37.7801 12.9923 37.2947 13.2499 36.6286 13.6195Z" fill="white"/>
<path d="M37.8983 20.9144C37.7355 20.9144 37.1525 21.7059 36.8813 22.1016C37.0847 22.1675 37.5729 22.3786 37.8983 22.6952C38.3864 22.3786 38.7796 22.1675 38.9152 22.1016C38.644 21.7059 38.061 20.9144 37.8983 20.9144Z" fill="white"/>
<path d="M37.8983 32.9839C38.061 32.9839 38.644 32.1924 38.9152 31.7967C38.7118 31.7308 38.2237 31.5197 37.8983 31.2032C37.4101 31.5197 37.0169 31.7308 36.8813 31.7967C37.1525 32.1924 37.7355 32.9839 37.8983 32.9839Z" fill="white"/>
<path d="M44 26.8502C44 26.692 43.1864 26.1247 42.7796 25.8609C42.7118 26.0588 42.4949 26.5337 42.1694 26.8502C42.4949 27.3251 42.7118 27.7076 42.7796 27.8395C43.1864 27.5757 44 27.0085 44 26.8502Z" fill="white"/>
<path d="M31.7966 26.8502C31.7966 27.0085 32.6102 27.5757 33.017 27.8395C33.0848 27.6417 33.3017 27.1668 33.6271 26.8502C33.3017 26.3754 33.0848 25.9928 33.017 25.8609C32.6102 26.1247 31.7966 26.692 31.7966 26.8502Z" fill="white"/>
<path d="M43.2721 23.764C43.1769 23.6247 42.0912 23.6066 41.5603 23.6149C41.6173 23.8292 41.7043 24.3757 41.5968 24.8469C42.1802 25.0725 42.4973 25.2828 42.6387 25.3588C42.8523 24.8859 43.3673 23.9034 43.2721 23.764Z" fill="white"/>
<path d="M32.6292 23.9742C32.5595 24.1211 33.047 24.9786 33.2994 25.389C33.448 25.2329 33.8537 24.8805 34.288 24.7191C34.2023 24.146 34.2271 23.7888 34.2238 23.6388C33.739 23.7181 32.6989 23.8273 32.6292 23.9742Z" fill="white"/>
<path d="M40.9491 21.7059C40.8083 21.6266 39.7605 22.0892 39.322 22.2995C39.4641 22.4557 39.8135 22.8562 39.9321 23.2887C40.5176 23.2527 41.0011 23.2798 41.1524 23.2887C41.1215 22.8141 41.0899 21.7852 40.9491 21.7059Z" fill="white"/>
<path d="M34.9098 21.5814C34.772 21.6589 34.6738 22.7659 34.6475 23.2377C34.8537 23.198 35.3753 23.1086 35.8137 23.2279C36.0645 22.7215 36.3218 22.3319 36.4028 22.2103C35.9696 21.9966 35.0477 21.504 34.9098 21.5814Z" fill="white"/>
<path d="M34.7461 32.1872C34.8803 32.2693 35.9303 31.8355 36.3706 31.6374C36.2389 31.479 35.9158 31.073 35.8205 30.6407C35.2446 30.6623 34.7717 30.6238 34.6238 30.6112C34.631 31.0831 34.6118 32.1051 34.7461 32.1872Z" fill="white"/>
<path d="M40.949 32.2477C41.0841 32.1669 41.1482 31.0589 41.1601 30.5871C40.9558 30.632 40.4386 30.7345 39.998 30.6266C39.7633 31.1387 39.5188 31.5343 39.4418 31.6578C39.88 31.8601 40.814 32.3285 40.949 32.2477Z" fill="white"/>
<path fill-rule="evenodd" clip-rule="evenodd" d="M36.0678 23.6845C35.5796 23.5262 34.7796 23.4866 34.4406 23.4866C34.4406 23.8823 34.4813 24.7529 34.644 25.0695C34.3186 25.0695 33.5593 25.4652 33.2203 25.6631C33.2881 25.8609 33.5457 26.3754 34.0338 26.8502C33.383 27.6417 33.2203 28.1033 33.2203 28.2352C33.6271 28.4331 34.4813 28.8288 34.644 28.8288C34.5427 28.8288 34.4887 29.187 34.4624 29.5687C34.3664 29.6151 34.2689 29.6629 34.17 29.7122C34.1508 29.4915 34.1498 29.2389 34.1956 29.011C33.7635 28.7824 33.4906 28.5826 33.3341 28.4681C33.2979 28.4416 33.2679 28.4197 33.2437 28.403C33.2033 28.4975 33.1505 28.6138 33.0934 28.7395C32.8883 29.1909 32.6285 29.7628 32.6977 29.8763C32.7467 29.9564 33.0686 30.0336 33.4279 30.0949C31.0118 31.3852 28.1293 33.3608 27.5254 35.3582L28.7457 35.9518C29.8159 34.2167 32.6066 31.5686 35.4718 30.276C35.5926 30.2645 35.7061 30.251 35.8027 30.2396C35.9245 30.2251 36.0192 30.2138 36.0678 30.2138C35.905 30.3721 36.4067 31.2032 36.6779 31.5989C37.0847 31.3351 37.8982 30.7679 37.8982 30.6096C37.8982 30.7679 38.7118 31.3351 39.1186 31.5989C39.322 31.2691 39.7695 30.5304 39.9321 30.2138C40.2969 30.273 40.5784 30.2972 40.7914 30.3008C43.4885 31.6562 46.0388 34.1132 47.0508 35.7539L48.2711 35.1603C47.6873 33.2292 44.9735 31.3185 42.6106 30.0278C42.8591 29.9735 43.051 29.9141 43.083 29.8506C43.161 29.6958 42.7382 28.806 42.517 28.3805C42.361 28.5462 41.9397 28.9214 41.5027 29.0971C41.5131 29.2298 41.5189 29.3515 41.5214 29.4623C41.4542 29.4291 41.3876 29.3967 41.3219 29.3649C41.2941 29.1262 41.2438 28.9177 41.1525 28.8288L42.7796 28.2352L41.7627 26.8502C42.0881 26.5337 42.5762 25.8609 42.5762 25.6631C42.2372 25.4652 41.4779 25.0695 41.1525 25.0695C41.3152 24.9112 41.3559 23.9483 41.3559 23.4866C40.9491 23.4866 40.3389 23.4866 39.7288 23.6845C39.7288 23.0513 39.322 22.4973 39.1186 22.2995C38.8474 22.4314 38.2237 22.7743 37.8982 23.0909C37.5728 22.7743 36.9491 22.4314 36.6779 22.2995C36.5423 22.4973 36.2304 23.0513 36.0678 23.6845ZM37.8982 23.4866L37.0847 25.6631L35.0508 25.2674L36.4745 26.8502L35.0508 28.631L37.0847 28.2352L37.8982 30.2139L38.7118 28.2352L40.7457 28.631L39.5254 26.8502L40.9491 25.2674L38.7118 25.6631L37.8982 23.4866Z" fill="white"/>
</g>
<path d="M94 48H178" stroke="white" stroke-width="1.5" stroke-linecap="round"/>
<defs>
<clipPath id="clip0_7_76">
<rect width="36" height="38" fill="white" transform="translate(20 13)"/>
</clipPath>
</defs>
</svg>
