<svg width="187" height="65" viewBox="0 0 187 65" fill="none" xmlns="http://www.w3.org/2000/svg">
<rect width="187" height="65" rx="11" fill="#0C629E"/>
<path d="M63.8466 41V26.1H66.0466L71.6466 33.86H70.5466L76.0466 26.1H78.2466V41H75.9066V28.88L76.7866 29.12L71.1666 36.8H70.9266L65.4266 29.12L66.2066 28.88V41H63.8466ZM83.9671 41V28.2H80.0071V26.1H90.2071V28.2H86.3071V41H83.9671ZM89.6555 41L94.8955 26.1H97.8155L103.056 41H100.536L99.3955 37.66H93.3355L92.1755 41H89.6555ZM94.0155 35.56H98.6755L96.0355 27.76H96.6955L94.0155 35.56ZM104.823 41V26.1H107.183V38.9H113.623V41H104.823ZM120.464 41.24C119.384 41.24 118.424 40.9933 117.584 40.5C116.758 39.9933 116.111 39.3133 115.644 38.46C115.178 37.5933 114.944 36.6267 114.944 35.56C114.944 34.4667 115.178 33.5 115.644 32.66C116.124 31.82 116.764 31.16 117.564 30.68C118.364 30.1867 119.271 29.94 120.284 29.94C121.098 29.94 121.824 30.08 122.464 30.36C123.104 30.64 123.644 31.0267 124.084 31.52C124.524 32 124.858 32.5533 125.084 33.18C125.324 33.8067 125.444 34.4733 125.444 35.18C125.444 35.3533 125.438 35.5333 125.424 35.72C125.411 35.9067 125.384 36.08 125.344 36.24H116.724V34.44H124.064L122.984 35.26C123.118 34.6067 123.071 34.0267 122.844 33.52C122.631 33 122.298 32.5933 121.844 32.3C121.404 31.9933 120.884 31.84 120.284 31.84C119.684 31.84 119.151 31.9933 118.684 32.3C118.218 32.5933 117.858 33.02 117.604 33.58C117.351 34.1267 117.251 34.7933 117.304 35.58C117.238 36.3133 117.338 36.9533 117.604 37.5C117.884 38.0467 118.271 38.4733 118.764 38.78C119.271 39.0867 119.844 39.24 120.484 39.24C121.138 39.24 121.691 39.0933 122.144 38.8C122.611 38.5067 122.978 38.1267 123.244 37.66L125.084 38.56C124.871 39.0667 124.538 39.5267 124.084 39.94C123.644 40.34 123.111 40.66 122.484 40.9C121.871 41.1267 121.198 41.24 120.464 41.24ZM130.792 41.24C130.059 41.24 129.412 41.1133 128.852 40.86C128.306 40.5933 127.879 40.2333 127.572 39.78C127.266 39.3133 127.112 38.7667 127.112 38.14C127.112 37.5533 127.239 37.0267 127.492 36.56C127.759 36.0933 128.166 35.7 128.712 35.38C129.259 35.06 129.946 34.8333 130.772 34.7L134.532 34.08V35.86L131.212 36.44C130.612 36.5467 130.172 36.74 129.892 37.02C129.612 37.2867 129.472 37.6333 129.472 38.06C129.472 38.4733 129.626 38.8133 129.932 39.08C130.252 39.3333 130.659 39.46 131.152 39.46C131.766 39.46 132.299 39.3267 132.752 39.06C133.219 38.7933 133.579 38.44 133.832 38C134.086 37.5467 134.212 37.0467 134.212 36.5V33.72C134.212 33.1867 134.012 32.7533 133.612 32.42C133.226 32.0733 132.706 31.9 132.052 31.9C131.452 31.9 130.926 32.06 130.472 32.38C130.032 32.6867 129.706 33.0867 129.492 33.58L127.612 32.64C127.812 32.1067 128.139 31.64 128.592 31.24C129.046 30.8267 129.572 30.5067 130.172 30.28C130.786 30.0533 131.432 29.94 132.112 29.94C132.966 29.94 133.719 30.1 134.372 30.42C135.039 30.74 135.552 31.1867 135.912 31.76C136.286 32.32 136.472 32.9733 136.472 33.72V41H134.312V39.04L134.772 39.1C134.519 39.54 134.192 39.92 133.792 40.24C133.406 40.56 132.959 40.8067 132.452 40.98C131.959 41.1533 131.406 41.24 130.792 41.24ZM139.115 41V30.18H141.275V32.36L141.075 32.04C141.315 31.3333 141.702 30.8267 142.235 30.52C142.768 30.2 143.408 30.04 144.155 30.04H144.815V32.1H143.875C143.128 32.1 142.522 32.3333 142.055 32.8C141.602 33.2533 141.375 33.9067 141.375 34.76V41H139.115ZM146.361 41V30.18H148.521V32.3L148.261 32.02C148.528 31.34 148.954 30.8267 149.541 30.48C150.128 30.12 150.808 29.94 151.581 29.94C152.381 29.94 153.088 30.1133 153.701 30.46C154.314 30.8067 154.794 31.2867 155.141 31.9C155.488 32.5133 155.661 33.22 155.661 34.02V41H153.421V34.62C153.421 34.0733 153.321 33.6133 153.121 33.24C152.921 32.8533 152.634 32.56 152.261 32.36C151.901 32.1467 151.488 32.04 151.021 32.04C150.554 32.04 150.134 32.1467 149.761 32.36C149.401 32.56 149.121 32.8533 148.921 33.24C148.721 33.6267 148.621 34.0867 148.621 34.62V41H146.361ZM159.08 41V38.4H161.38V41H159.08Z" fill="white"/>
<g clip-path="url(#clip0_7_76)">
<path d="M37.8906 24.8298L38.345 26.0976H39.8153L38.4977 26.8684L39.0801 28.1489L37.8906 27.3654L36.7011 28.1489L37.2835 26.8684L35.9659 26.0976H37.4363L37.8906 24.8298Z" fill="white"/>
<path d="M33.2204 39.3154L26.3051 35.5561L25.5314 36.1206C27.6051 36.6852 37.6949 43.0748 37.8983 44.0641C39.0373 42.3229 46.6441 38.0623 50.3051 36.1497L49.4915 35.5561L42.5763 39.5133C41.0848 40.5026 38.061 42.402 37.8983 42.8769C37.7356 42.2438 34.7119 40.2388 33.2204 39.3154Z" fill="white"/>
<path d="M26.9152 40.7005L35.661 49.2084L35.0508 50.9892C34.7254 50.356 27.322 43.9981 23.661 40.8983C22.2373 39.7111 21.2203 39.3154 20 38.7218C23.0508 36.5454 27.2542 37.9304 28.9492 38.9197L33.8305 42.0854C34.9152 43.0748 37.2475 45.2117 37.8983 45.8448C38.5491 44.9687 40.8814 42.9735 41.9661 42.0854C42.6441 41.6238 44.7729 40.2651 47.8644 38.524C52.9491 36.1497 55.3898 38.3261 56 38.9197C55.0237 38.7614 50.5085 42.1514 48.4746 43.8662L40.7458 50.9892L40.1356 49.2084L48.8814 40.7004C46.0339 39.7111 40.339 45.1853 37.8983 47.8234C37.1525 46.966 35.0102 44.7368 32.4068 42.6791C29.8034 40.6213 27.661 40.5026 26.9152 40.7005Z" fill="white"/>
<path d="M32 33.9732L30.7797 36.3475L37.6949 40.7004V40.3047C35.7288 39.0516 31.7153 36.4662 31.3898 36.1497C30.9831 35.9518 32.2034 34.1711 32.4068 33.7753C32.2441 33.7753 32.0678 33.9072 32 33.9732Z" fill="white"/>
<path d="M38.1017 40.3047V40.7004L45.0169 36.3475C44.7458 35.7539 44.1627 34.4876 44 34.1711C43.8373 33.8545 43.5254 33.7753 43.3898 33.7753L44.2034 35.3582C44.5288 35.9914 44.6102 36.1497 44.2034 36.3475L38.1017 40.3047Z" fill="white"/>
<path d="M33.0169 33.9732L32.2034 35.9518L37.2881 39.1176L37.6949 38.7218C37.2881 37.3368 34.0339 36.1497 33.4237 35.9518C32.9356 35.4769 33.3559 34.3029 33.6271 33.7753L33.0169 33.9732Z" fill="white"/>
<path d="M38.5084 39.1176L38.3051 38.524C40.1355 36.3475 41.5593 36.3475 42.3728 35.9518C43.0237 35.7935 42.5084 34.303 42.1694 33.5775L42.7796 33.7753L43.5932 35.9518L38.5084 39.1176Z" fill="white"/>
<path d="M37.8983 36.1497C37.2474 34.5668 34.983 33.8413 34.0339 33.7753C33.6949 34.4348 33.1796 35.7935 33.8305 35.9518C36.2712 36.1497 36.8813 37.1389 37.8983 38.3261C39.2 36.4266 41.0169 35.9518 41.7627 35.9518C42.1017 35.7539 42.5356 35.0416 41.5593 33.7753C39.444 34.0919 38.2373 35.4901 37.8983 36.1497Z" fill="white"/>
<path d="M36.6286 13.6195C33.8715 15.1473 32.7199 15.8079 31.647 16.4784C29.3164 17.9354 27.984 19.1033 27.0584 20.4993C26.0366 22.0369 25.5237 23.8556 25.3488 26.5552C25.2368 28.2874 25.28 30.7216 25.4765 33.7496C25.4981 34.0779 25.5158 34.3551 25.5158 34.3669C25.5158 34.3768 25.5885 34.2863 25.677 34.1625C26.2174 33.4074 26.9681 32.6229 27.7678 31.98C28.2238 31.6123 28.827 31.1915 29.2633 30.9379L29.4441 30.8337L29.4362 30.7531C29.4166 30.58 29.3871 29.8879 29.3675 29.1644C29.3105 27.0173 29.4913 25.1828 29.8803 23.9873C30.0769 23.3778 30.291 22.9767 30.576 22.6818C31.024 22.2177 31.0869 22.1627 31.6077 21.8049C32.6197 21.1049 34.6674 19.8721 37.1061 18.4918L37.898 18.0415L38.5112 18.3876C40.7593 19.6577 42.7126 20.8237 43.8406 21.5709C44.5519 22.0408 44.8683 22.2905 45.1022 22.5658C45.1139 22.5815 45.1749 22.6425 45.2358 22.7014C45.4677 22.9256 45.7153 23.3817 45.8921 23.9106C46.1653 24.7325 46.3146 25.6449 46.409 27.0566C46.4404 27.5324 46.4404 29.3826 46.409 29.9567C46.3952 30.1888 46.3795 30.4817 46.3736 30.6076L46.3598 30.8356L46.6035 30.9812C47.9909 31.8089 49.3331 33.028 50.1505 34.2037L50.2645 34.3689L50.2802 34.302C50.292 34.2411 50.3255 33.72 50.3942 32.5128C50.5082 30.5034 50.5416 28.1891 50.4728 26.9189C50.2763 23.2441 49.5158 21.1186 47.7511 19.3019C46.6114 18.13 45.1434 17.1056 42.2881 15.4914C41.5925 15.0962 37.841 13.0159 37.7978 13.0002C37.7801 12.9923 37.2947 13.2499 36.6286 13.6195Z" fill="white"/>
<path d="M37.8983 20.9144C37.7355 20.9144 37.1525 21.7059 36.8813 22.1016C37.0847 22.1675 37.5729 22.3786 37.8983 22.6952C38.3864 22.3786 38.7796 22.1675 38.9152 22.1016C38.644 21.7059 38.061 20.9144 37.8983 20.9144Z" fill="white"/>
<path d="M37.8983 32.9839C38.061 32.9839 38.644 32.1924 38.9152 31.7967C38.7118 31.7308 38.2237 31.5197 37.8983 31.2032C37.4101 31.5197 37.0169 31.7308 36.8813 31.7967C37.1525 32.1924 37.7355 32.9839 37.8983 32.9839Z" fill="white"/>
<path d="M44 26.8502C44 26.692 43.1864 26.1247 42.7796 25.8609C42.7118 26.0588 42.4949 26.5337 42.1694 26.8502C42.4949 27.3251 42.7118 27.7076 42.7796 27.8395C43.1864 27.5757 44 27.0085 44 26.8502Z" fill="white"/>
<path d="M31.7966 26.8502C31.7966 27.0085 32.6102 27.5757 33.017 27.8395C33.0848 27.6417 33.3017 27.1668 33.6271 26.8502C33.3017 26.3754 33.0848 25.9928 33.017 25.8609C32.6102 26.1247 31.7966 26.692 31.7966 26.8502Z" fill="white"/>
<path d="M43.2721 23.764C43.1769 23.6247 42.0912 23.6066 41.5603 23.6149C41.6173 23.8292 41.7043 24.3757 41.5968 24.8469C42.1802 25.0725 42.4973 25.2828 42.6387 25.3588C42.8523 24.8859 43.3673 23.9034 43.2721 23.764Z" fill="white"/>
<path d="M32.6292 23.9742C32.5595 24.1211 33.047 24.9786 33.2994 25.389C33.448 25.2329 33.8537 24.8805 34.288 24.7191C34.2023 24.146 34.2271 23.7888 34.2238 23.6388C33.739 23.7181 32.6989 23.8273 32.6292 23.9742Z" fill="white"/>
<path d="M40.9491 21.7059C40.8083 21.6266 39.7605 22.0891 39.322 22.2994C39.4641 22.4557 39.8135 22.8562 39.9321 23.2887C40.5176 23.2527 41.0011 23.2797 41.1524 23.2887C41.1215 22.8141 41.0899 21.7851 40.9491 21.7059Z" fill="white"/>
<path d="M34.9098 21.5814C34.772 21.6588 34.6738 22.7659 34.6475 23.2377C34.8537 23.198 35.3753 23.1086 35.8137 23.2279C36.0645 22.7214 36.3218 22.3319 36.4028 22.2102C35.9696 21.9966 35.0477 21.504 34.9098 21.5814Z" fill="white"/>
<path d="M34.7461 32.1872C34.8803 32.2693 35.9303 31.8355 36.3706 31.6374C36.2389 31.479 35.9158 31.073 35.8205 30.6407C35.2446 30.6623 34.7717 30.6238 34.6238 30.6112C34.631 31.0831 34.6118 32.1051 34.7461 32.1872Z" fill="white"/>
<path d="M40.949 32.2477C41.0841 32.1669 41.1482 31.0589 41.1601 30.5871C40.9558 30.632 40.4386 30.7345 39.998 30.6266C39.7633 31.1387 39.5188 31.5343 39.4418 31.6578C39.88 31.8601 40.814 32.3285 40.949 32.2477Z" fill="white"/>
<path fill-rule="evenodd" clip-rule="evenodd" d="M36.0678 23.6845C35.5796 23.5262 34.7796 23.4866 34.4406 23.4866C34.4406 23.8823 34.4813 24.7529 34.644 25.0695C34.3186 25.0695 33.5593 25.4652 33.2203 25.6631C33.2881 25.8609 33.5457 26.3754 34.0338 26.8502C33.383 27.6417 33.2203 28.1033 33.2203 28.2352C33.6271 28.4331 34.4813 28.8288 34.644 28.8288C34.5427 28.8288 34.4887 29.187 34.4624 29.5687C34.3664 29.6151 34.2689 29.6629 34.17 29.7122C34.1508 29.4915 34.1498 29.2389 34.1956 29.011C33.7635 28.7824 33.4906 28.5826 33.3341 28.4681C33.2979 28.4416 33.2679 28.4197 33.2437 28.403C33.2033 28.4975 33.1505 28.6138 33.0934 28.7395C32.8883 29.1909 32.6285 29.7628 32.6977 29.8763C32.7467 29.9564 33.0686 30.0336 33.4279 30.0949C31.0118 31.3852 28.1293 33.3608 27.5254 35.3582L28.7457 35.9518C29.8159 34.2167 32.6066 31.5686 35.4718 30.276C35.5926 30.2645 35.7061 30.251 35.8027 30.2396C35.9245 30.2251 36.0192 30.2138 36.0678 30.2138C35.905 30.3721 36.4067 31.2032 36.6779 31.5989C37.0847 31.3351 37.8982 30.7679 37.8982 30.6096C37.8982 30.7679 38.7118 31.3351 39.1186 31.5989C39.322 31.2691 39.7695 30.5304 39.9321 30.2138C40.2969 30.273 40.5784 30.2972 40.7914 30.3008C43.4885 31.6562 46.0388 34.1132 47.0508 35.7539L48.2711 35.1603C47.6873 33.2292 44.9735 31.3185 42.6106 30.0278C42.8591 29.9735 43.051 29.9141 43.083 29.8506C43.161 29.6958 42.7382 28.806 42.517 28.3805C42.361 28.5462 41.9397 28.9214 41.5027 29.0971C41.5131 29.2298 41.5189 29.3515 41.5214 29.4623C41.4542 29.4291 41.3876 29.3967 41.3219 29.3649C41.2941 29.1262 41.2438 28.9177 41.1525 28.8288L42.7796 28.2352L41.7627 26.8502C42.0881 26.5337 42.5762 25.8609 42.5762 25.6631C42.2372 25.4652 41.4779 25.0695 41.1525 25.0695C41.3152 24.9112 41.3559 23.9483 41.3559 23.4866C40.9491 23.4866 40.3389 23.4866 39.7288 23.6845C39.7288 23.0513 39.322 22.4973 39.1186 22.2995C38.8474 22.4314 38.2237 22.7743 37.8982 23.0909C37.5728 22.7743 36.9491 22.4314 36.6779 22.2995C36.5423 22.4973 36.2304 23.0513 36.0678 23.6845ZM37.8982 23.4866L37.0847 25.6631L35.0508 25.2674L36.4745 26.8502L35.0508 28.631L37.0847 28.2352L37.8982 30.2139L38.7118 28.2352L40.7457 28.631L39.5254 26.8502L40.9491 25.2674L38.7118 25.6631L37.8982 23.4866Z" fill="white"/>
</g>
<path d="M94 48H178" stroke="white" stroke-width="1.5" stroke-linecap="round"/>
<defs>
<clipPath id="clip0_7_76">
<rect width="36" height="38" fill="white" transform="translate(20 13)"/>
</clipPath>
</defs>
</svg>
